<svg xmlns="http://www.w3.org/2000/svg" width="1080" height="700" viewBox="0 0 1080 700" role="img" aria-labelledby="title desc">
<title id="title">Figure 5 · Recorded token consumption</title>
<desc id="desc">Task means use available measured runs only. Missing telemetry is not zero and is not extrapolated.</desc>
<rect width="1080" height="700" fill="#fbfcfb"/>
<style>text{font-family:Inter,ui-sans-serif,system-ui,-apple-system,BlinkMacSystemFont,Segoe UI,sans-serif;fill:#173238}.mono{font-family:ui-monospace,SFMono-Regular,Menlo,monospace}.small{font-size:13px}.label{font-size:15px;font-weight:600}.title{font-size:26px;font-weight:700}.subtitle{font-size:14px;fill:#587179}</style>
<text x="48.00" y="43.00" text-anchor="start" class="title">Figure 5 · Recorded token consumption</text>
<text x="48.00" y="68.00" text-anchor="start" class="subtitle">Task means use available measured runs only. Missing telemetry is not zero and is not extrapolated.</text>
<line x1="140.00" y1="555.00" x2="960.00" y2="555.00" stroke="#d7e1df" stroke-width="1"/>
<text x="124.00" y="560.00" text-anchor="end" class="small">0</text>
<line x1="140.00" y1="465.00" x2="960.00" y2="465.00" stroke="#d7e1df" stroke-width="1"/>
<text x="124.00" y="470.00" text-anchor="end" class="small">54000</text>
<line x1="140.00" y1="375.00" x2="960.00" y2="375.00" stroke="#d7e1df" stroke-width="1"/>
<text x="124.00" y="380.00" text-anchor="end" class="small">108000</text>
<line x1="140.00" y1="285.00" x2="960.00" y2="285.00" stroke="#d7e1df" stroke-width="1"/>
<text x="124.00" y="290.00" text-anchor="end" class="small">162000</text>
<line x1="140.00" y1="195.00" x2="960.00" y2="195.00" stroke="#d7e1df" stroke-width="1"/>
<text x="124.00" y="200.00" text-anchor="end" class="small">216000</text>
<line x1="140.00" y1="105.00" x2="960.00" y2="105.00" stroke="#d7e1df" stroke-width="1"/>
<text x="124.00" y="110.00" text-anchor="end" class="small">270000</text>
<circle cx="284.00" cy="451.44" r="5.50" fill="#147d6f" stroke="white" stroke-width="1.5"/>
<circle cx="292.00" cy="432.42" r="5.50" fill="#147d6f" stroke="white" stroke-width="1.5"/>
<circle cx="300.00" cy="429.90" r="5.50" fill="#147d6f" stroke="white" stroke-width="1.5"/>
<circle cx="308.00" cy="421.28" r="5.50" fill="#147d6f" stroke="white" stroke-width="1.5"/>
<circle cx="316.00" cy="420.09" r="5.50" fill="#147d6f" stroke="white" stroke-width="1.5"/>
<circle cx="284.00" cy="417.16" r="5.50" fill="#147d6f" stroke="white" stroke-width="1.5"/>
<circle cx="292.00" cy="415.77" r="5.50" fill="#147d6f" stroke="white" stroke-width="1.5"/>
<circle cx="300.00" cy="414.55" r="5.50" fill="#147d6f" stroke="white" stroke-width="1.5"/>
<circle cx="308.00" cy="414.10" r="5.50" fill="#147d6f" stroke="white" stroke-width="1.5"/>
<circle cx="316.00" cy="397.10" r="5.50" fill="#147d6f" stroke="white" stroke-width="1.5"/>
<circle cx="284.00" cy="389.09" r="5.50" fill="#147d6f" stroke="white" stroke-width="1.5"/>
<circle cx="292.00" cy="376.29" r="5.50" fill="#147d6f" stroke="white" stroke-width="1.5"/>
<line x1="235.00" y1="416.47" x2="365.00" y2="416.47" stroke="#173238" stroke-width="4"/>
<text x="300.00" y="590.00" text-anchor="middle" class="label">Single</text>
<text x="300.00" y="612.00" text-anchor="middle" class="small">median 83,120.5 · 12 task means</text>
<text x="300.00" y="634.00" text-anchor="middle" class="small">tokens measured: 36/36 runs</text>
<circle cx="534.00" cy="369.92" r="5.50" fill="#d38a2f" stroke="white" stroke-width="1.5"/>
<circle cx="542.00" cy="353.90" r="5.50" fill="#d38a2f" stroke="white" stroke-width="1.5"/>
<circle cx="550.00" cy="319.20" r="5.50" fill="#d38a2f" stroke="white" stroke-width="1.5"/>
<circle cx="558.00" cy="307.75" r="5.50" fill="#d38a2f" stroke="white" stroke-width="1.5"/>
<circle cx="566.00" cy="306.00" r="5.50" fill="#d38a2f" stroke="white" stroke-width="1.5"/>
<circle cx="534.00" cy="302.12" r="5.50" fill="#d38a2f" stroke="white" stroke-width="1.5"/>
<circle cx="542.00" cy="285.92" r="5.50" fill="#d38a2f" stroke="white" stroke-width="1.5"/>
<circle cx="550.00" cy="284.72" r="5.50" fill="#d38a2f" stroke="white" stroke-width="1.5"/>
<circle cx="558.00" cy="276.49" r="5.50" fill="#d38a2f" stroke="white" stroke-width="1.5"/>
<circle cx="566.00" cy="272.48" r="5.50" fill="#d38a2f" stroke="white" stroke-width="1.5"/>
<circle cx="534.00" cy="272.05" r="5.50" fill="#d38a2f" stroke="white" stroke-width="1.5"/>
<circle cx="542.00" cy="240.32" r="5.50" fill="#d38a2f" stroke="white" stroke-width="1.5"/>
<line x1="485.00" y1="294.02" x2="615.00" y2="294.02" stroke="#173238" stroke-width="4"/>
<text x="550.00" y="590.00" text-anchor="middle" class="label">Staged</text>
<text x="550.00" y="612.00" text-anchor="middle" class="small">median 156,589.2 · 12 task means</text>
<text x="550.00" y="634.00" text-anchor="middle" class="small">tokens measured: 25/36 runs</text>
<circle cx="784.00" cy="287.52" r="5.50" fill="#6b63a8" stroke="white" stroke-width="1.5"/>
<circle cx="792.00" cy="214.48" r="5.50" fill="#6b63a8" stroke="white" stroke-width="1.5"/>
<circle cx="800.00" cy="210.14" r="5.50" fill="#6b63a8" stroke="white" stroke-width="1.5"/>
<circle cx="808.00" cy="184.92" r="5.50" fill="#6b63a8" stroke="white" stroke-width="1.5"/>
<circle cx="816.00" cy="179.80" r="5.50" fill="#6b63a8" stroke="white" stroke-width="1.5"/>
<circle cx="784.00" cy="170.81" r="5.50" fill="#6b63a8" stroke="white" stroke-width="1.5"/>
<circle cx="792.00" cy="170.54" r="5.50" fill="#6b63a8" stroke="white" stroke-width="1.5"/>
<circle cx="800.00" cy="166.71" r="5.50" fill="#6b63a8" stroke="white" stroke-width="1.5"/>
<circle cx="808.00" cy="159.66" r="5.50" fill="#6b63a8" stroke="white" stroke-width="1.5"/>
<circle cx="816.00" cy="113.01" r="5.50" fill="#6b63a8" stroke="white" stroke-width="1.5"/>
<circle cx="784.00" cy="105.00" r="5.50" fill="#6b63a8" stroke="white" stroke-width="1.5"/>
<line x1="735.00" y1="170.81" x2="865.00" y2="170.81" stroke="#173238" stroke-width="4"/>
<text x="800.00" y="590.00" text-anchor="middle" class="label">Parallel-2</text>
<text x="800.00" y="612.00" text-anchor="middle" class="small">median 230,514.3 · 11 task means</text>
<text x="800.00" y="634.00" text-anchor="middle" class="small">tokens measured: 26/36 runs</text>
<text x="540.00" y="665.00" text-anchor="middle" class="subtitle">Horizontal line: median across task-level repetition averages · dots: individual tasks</text>
</svg>
